<?xml version="1.0" encoding="utf-8"?>
<!-- Generator: Adobe Illustrator 26.0.1, SVG Export Plug-In . SVG Version: 6.00 Build 0)  -->
<svg version="1.1" xmlns="http://www.w3.org/2000/svg" xmlns:xlink="http://www.w3.org/1999/xlink" x="0px" y="0px"
	 viewBox="0 0 500 500" style="enable-background:new 0 0 500 500;" xml:space="preserve">
<style type="text/css">
	.st0{fill:#EBEBEB;}
	.st1{fill:#E6E6E6;}
	.st2{fill:#F0F0F0;}
	.st3{fill:#FAFAFA;}
	.st4{fill:#FFFFFF;}
	.st5{opacity:0.6;}
	.st6{fill:#F5F5F5;}
	.st7{fill:#E0E0E0;}
	.st8{display:none;}
	.st9{display:inline;}
	.st10{fill:#407BFF;}
	.st11{opacity:0.9;fill:#FFFFFF;}
	.st12{opacity:0.5;fill:#FFFFFF;}
	.st13{opacity:0.5;fill:#407BFF;}
	.st14{opacity:0.3;}
	.st15{fill:#FFB573;}
	.st16{opacity:0.6;fill:#FFFFFF;}
	.st17{opacity:0.3;fill:#407BFF;}
	.st18{opacity:0.2;fill:#407BFF;}
	.st19{fill:#263238;}
	.st20{fill:#FF5652;}
	.st21{opacity:0.2;}
</style>
<g id="Background_Complete">
	<g>
		<g>
			<rect y="382.4" class="st0" width="500" height="0.2"/>
			<path class="st0" d="M237,337.8H43.9c-3.1,0-5.7-2.6-5.7-5.7V60.7c0-3.1,2.6-5.7,5.7-5.7H237c3.1,0,5.7,2.6,5.7,5.7v271.4
				C242.7,335.2,240.2,337.8,237,337.8z M43.9,55.2c-3,0-5.5,2.4-5.5,5.5v271.4c0,3,2.4,5.5,5.5,5.5H237c3,0,5.5-2.4,5.5-5.5V60.7
				c0-3-2.4-5.5-5.5-5.5H43.9z"/>
			<path class="st0" d="M453.3,337.8H260.2c-3.1,0-5.7-2.6-5.7-5.7V60.7c0-3.1,2.6-5.7,5.7-5.7h193.1c3.1,0,5.7,2.6,5.7,5.7v271.4
				C459,335.2,456.5,337.8,453.3,337.8z M260.2,55.2c-3,0-5.5,2.4-5.5,5.5v271.4c0,3,2.4,5.5,5.5,5.5h193.1c3,0,5.5-2.4,5.5-5.5
				V60.7c0-3-2.4-5.5-5.5-5.5H260.2z"/>
		</g>
		<g>
			<rect x="174.4" y="391.9" class="st0" width="26" height="0.2"/>
			<rect x="52.5" y="389.2" class="st0" width="54.1" height="0.2"/>
			<rect x="147.1" y="401.2" class="st0" width="26.3" height="0.2"/>
			<rect x="258.2" y="399.5" class="st0" width="38.8" height="0.2"/>
			<rect x="306" y="399.5" class="st0" width="10.7" height="0.2"/>
			<rect x="395.3" y="395.3" class="st0" width="54.6" height="0.2"/>
		</g>
	</g>
	<g>
		<g>
			<g>
				<rect x="76.9" y="91.3" class="st1" width="148.4" height="156.6"/>
				<path class="st1" d="M241.2,86.2H67.3c-0.8,0-1.5,0.7-1.5,1.5l0,0c0,0.8,0.7,1.5,1.5,1.5h173.9c0.8,0,1.5-0.7,1.5-1.5l0,0
					C242.7,86.8,242,86.2,241.2,86.2z"/>
				<rect x="79.9" y="91.3" class="st2" width="151.7" height="156.6"/>
				<rect x="76.9" y="247.8" class="st1" width="148.4" height="5.9"/>
				<rect x="90.4" y="247.8" class="st2" width="151.7" height="5.9"/>
				
					<rect x="86.3" y="102.5" transform="matrix(-1.836970e-16 1 -1 -1.836970e-16 325.2757 13.8076)" class="st3" width="139" height="134.1"/>
				<polygon class="st4" points="119.1,239 170.9,100.1 195.3,100.1 143.5,239 				"/>
				<polygon class="st4" points="148.8,239 200.5,100.1 210,100.1 158.3,239 				"/>
				
					<rect x="152.8" y="169" transform="matrix(-1.836970e-16 1 -1 -1.836970e-16 391.7704 -52.687)" class="st1" width="139" height="1.1"/>
			</g>
			<g class="st5">
				<polygon class="st2" points="85,225 66.4,225 76.4,83.5 95.1,83.5 				"/>
				<polygon class="st1" points="92.3,225 77.8,225 87.8,83.5 102.3,83.5 				"/>
				<polygon class="st2" points="103.7,225 85,225 95.1,83.5 113.7,83.5 				"/>
				<polygon class="st1" points="110.9,225 96.4,225 106.5,83.5 121,83.5 				"/>
				<polygon class="st2" points="122.3,225 103.7,225 113.7,83.5 132.3,83.5 				"/>
			</g>
			<g class="st5">
				<polygon class="st2" points="228.5,225 239.1,225 233.4,83.5 222.9,83.5 				"/>
				<polygon class="st1" points="224.4,225 232.6,225 227,83.5 218.8,83.5 				"/>
				<polygon class="st2" points="218,225 228.5,225 222.9,83.5 212.3,83.5 				"/>
				<polygon class="st1" points="213.9,225 222.1,225 216.4,83.5 208.2,83.5 				"/>
				<polygon class="st2" points="207.5,225 218,225 212.3,83.5 201.8,83.5 				"/>
			</g>
		</g>
		<g>
			<g>
				<rect x="324" y="83.5" class="st1" width="102.6" height="136.4"/>
				<rect x="327.3" y="83.5" class="st6" width="107.2" height="136.4"/>
				
					<rect x="321.6" y="107.1" transform="matrix(8.057266e-02 -0.9967 0.9967 8.057266e-02 198.8954 519.1425)" class="st4" width="118.5" height="89.2"/>
				
					<rect x="365" y="154.2" transform="matrix(8.058982e-02 -0.9967 0.9967 8.058982e-02 235.2777 565.602)" class="st1" width="118.5" height="2.2"/>
			</g>
		</g>
		<g>
			<g>
				<rect x="382.8" y="270.9" class="st6" width="57.3" height="111.5"/>
				<rect x="435.4" y="270.9" class="st2" width="4.7" height="111.5"/>
				
					<rect x="255.3" y="274.1" transform="matrix(-1 -1.224647e-16 1.224647e-16 -1 642.466 595.3806)" class="st1" width="132" height="47.2"/>
				
					<rect x="261.6" y="270.9" transform="matrix(-1 -1.224647e-16 1.224647e-16 -1 701.7197 550.2131)" class="st2" width="178.5" height="8.4"/>
				<rect x="204.3" y="270.9" class="st6" width="57.3" height="111.5"/>
				<path class="st1" d="M220.4,382.4h-27.8v-62.2c0-7.6,6.2-13.8,13.8-13.8h0.3c7.6,0,13.8,6.2,13.8,13.8V382.4z"/>
				<rect x="256.9" y="270.9" class="st2" width="4.7" height="111.5"/>
			</g>
			<g>
				<polygon class="st2" points="326.1,270.9 313.8,270.9 316.8,246.9 329.1,246.9 				"/>
				<polygon class="st6" points="328.9,270.9 316.5,270.9 319.5,246.9 331.9,246.9 				"/>
				<polygon class="st2" points="330.4,258.9 318,258.9 319.5,246.9 331.9,246.9 				"/>
				<path class="st2" d="M284.9,256h87.5c0.7,0,1.3-0.6,1.2-1.4l-6.7-53.9c-0.1-0.6-0.6-1.1-1.2-1.1h-87.5c-0.7,0-1.3,0.6-1.2,1.4
					l6.7,53.9C283.8,255.6,284.3,256,284.9,256z"/>
				<path class="st6" d="M286.2,256h87.5c0.7,0,1.3-0.6,1.2-1.4l-6.7-53.9c-0.1-0.6-0.6-1.1-1.2-1.1h-87.5c-0.7,0-1.3,0.6-1.2,1.4
					L285,255C285.1,255.6,285.6,256,286.2,256z"/>
				<path class="st1" d="M372.1,253l-6.3-50.5c0-0.2-0.2-0.3-0.3-0.3h-84c-0.2,0-0.4,0.2-0.3,0.4l6.3,50.5c0,0.2,0.2,0.3,0.3,0.3h84
					C371.9,253.4,372.1,253.2,372.1,253z"/>
				<polygon class="st0" points="363.1,253.4 340.9,202.3 321.4,202.3 343.6,253.4 				"/>
				<polygon class="st0" points="339.9,253.4 317.7,202.3 310.7,202.3 332.9,253.4 				"/>
				<path class="st6" d="M322,268.7h16.1c1.1,0,2,0.9,2,2v0.2H320v-0.2C320,269.6,320.9,268.7,322,268.7z"/>
				<path class="st2" d="M310.6,268.7h9.7c1.1,0,2,0.9,2,2v0.2h-13.7v-0.2C308.6,269.6,309.5,268.7,310.6,268.7z"/>
			</g>
			<g>
				<polygon class="st6" points="362.4,270.9 300.1,270.9 298.4,265.9 354.3,265.9 				"/>
				<polygon class="st2" points="307,270.9 296.7,270.9 295.3,265.9 305.6,265.9 				"/>
			</g>
			<path class="st2" d="M273.6,266.7h9.4c2.3,0,4.2,1.9,4.2,4.2v0h-17.7v0C269.4,268.6,271.3,266.7,273.6,266.7z"/>
		</g>
		<g>
			
				<rect x="89.2" y="301.7" transform="matrix(-1 -1.224647e-16 1.224647e-16 -1 195.8246 684.0651)" class="st7" width="17.4" height="80.7"/>
			<polygon class="st1" points="166.3,382.4 96.1,382.4 87.4,287 157.7,287 			"/>
			<polygon class="st2" points="170,382.4 99.8,382.4 91.1,287 161.3,287 			"/>
			<polygon class="st4" points="109.4,371.8 102.6,297.6 151.7,297.6 158.5,371.8 			"/>
		</g>
	</g>
</g>
<g id="Background_Simple" class="st8">
	<g class="st9">
		<path class="st10" d="M350.1,175.3c-4.1,35,20.9,88.7-22.3,107.6c-36.3,15.9-66.6-7.1-96.1,24.7c-21.5,23.1-58.8,60.5-86.9,21.8
			c-22-30.3-23.1-75.5-12.5-109.9c8.3-27,35.4-82.4,70.7-87c39.6-5.2,64.7,46.8,86.5-5.7c13.1-31.6,40.7-68.9,83.8-43.2
			c17,10.1,12.1,22.7,3.1,35.8C363.1,138.5,352.9,151.2,350.1,175.3z"/>
		<path class="st11" d="M350.1,175.3c-4.1,35,20.9,88.7-22.3,107.6c-36.3,15.9-66.6-7.1-96.1,24.7c-21.5,23.1-58.8,60.5-86.9,21.8
			c-22-30.3-23.1-75.5-12.5-109.9c8.3-27,35.4-82.4,70.7-87c39.6-5.2,64.7,46.8,86.5-5.7c13.1-31.6,40.7-68.9,83.8-43.2
			c17,10.1,12.1,22.7,3.1,35.8C363.1,138.5,352.9,151.2,350.1,175.3z"/>
	</g>
</g>
<g id="Shadow_1_">
	<ellipse id="_x3C_Path_x3E__54_" class="st6" cx="250" cy="416.2" rx="193.9" ry="11.3"/>
</g>
<g id="Upload_Window">
	<g>
		<g>
			<g>
				
					<rect x="98.3" y="177" transform="matrix(0.9995 -3.266696e-02 3.266696e-02 0.9995 -5.9472 3.3254)" class="st10" width="1" height="13.3"/>
				
					<rect x="97.8" y="165.5" transform="matrix(0.9995 -3.267364e-02 3.267364e-02 0.9995 -5.4589 3.3021)" class="st10" width="1" height="6.3"/>
				<path class="st10" d="M112.2,261.9h190.9c4.3,0,7.7-3.5,7.6-7.8l-4.2-130.2c-0.1-4.3-3.8-7.8-8.1-7.8H107.4
					c-4.3,0-7.7,3.5-7.6,7.8l4.2,130.2C104.2,258.3,107.9,261.9,112.2,261.9z"/>
				<g>
					<g>
						<path class="st10" d="M112.8,261.9h190.9c4.3,0,7.7-3.5,7.6-7.8L307,123.8c-0.1-4.3-3.8-7.8-8.1-7.8H108
							c-4.3,0-7.7,3.5-7.6,7.8l4.2,130.2C104.8,258.3,108.5,261.9,112.8,261.9z"/>
						<path class="st12" d="M112.8,261.9h190.9c4.3,0,7.7-3.5,7.6-7.8L307,123.8c-0.1-4.3-3.8-7.8-8.1-7.8H108
							c-4.3,0-7.7,3.5-7.6,7.8l4.2,130.2C104.8,258.3,108.5,261.9,112.8,261.9z"/>
					</g>
					<path class="st13" d="M298.4,119.9H107.6c-0.2,0-0.4,0-0.6,0c-4.9,0.4-4.2,7.8,0.7,7.8h191.2c4.9,0,5.1-7.4,0.2-7.8
						C298.9,119.9,298.6,119.9,298.4,119.9z"/>
					<path class="st3" d="M112.4,123.8c0,1-0.7,1.8-1.7,1.8c-1,0-1.8-0.8-1.9-1.8c0-1,0.7-1.8,1.7-1.8
						C111.5,122,112.3,122.8,112.4,123.8z"/>
					<path class="st3" d="M118.5,123.8c0,1-0.7,1.8-1.7,1.8c-1,0-1.8-0.8-1.9-1.8s0.7-1.8,1.7-1.8
						C117.6,122,118.5,122.8,118.5,123.8z"/>
					
						<ellipse transform="matrix(0.701 -0.7132 0.7132 0.701 -51.5548 124.6027)" class="st3" cx="122.8" cy="123.8" rx="1.8" ry="1.8"/>
				</g>
				<path class="st4" d="M116.5,248.9h182.6c1.6,0,2.8-1.3,2.8-2.8l-3.5-107.1c-0.1-1.6-1.4-2.8-2.9-2.8H112.8
					c-1.6,0-2.8,1.3-2.8,2.8l3.5,107.1C113.6,247.6,114.9,248.9,116.5,248.9z"/>
				<g class="st14">
					<polygon class="st10" points="250.5,235.6 247.2,235.6 247.2,234.7 249.5,234.7 249.5,232.3 250.4,232.3 					"/>
					<path class="st10" d="M241.9,235.6h-5.3v-0.9h5.3V235.6z M231.3,235.6H226v-0.9h5.3V235.6z M220.6,235.6h-5.3v-0.9h5.3V235.6z
						 M210,235.6h-5.3v-0.9h5.3V235.6z M199.4,235.6h-5.3v-0.9h5.3V235.6z M188.8,235.6h-5.3v-0.9h5.3V235.6z M178.2,235.6h-5.3
						v-0.9h5.3V235.6z"/>
					<polygon class="st10" points="167.5,235.6 164.2,235.6 164.1,232.3 165.1,232.3 165.2,234.7 167.5,234.7 					"/>
					<path class="st10" d="M164,227l-0.2-5.3l0.9,0l0.2,5.3L164,227z M163.6,216.4l-0.2-5.3l0.9,0l0.2,5.3L163.6,216.4z
						 M163.3,205.8l-0.2-5.3l0.9,0l0.2,5.3L163.3,205.8z M162.9,195.1l-0.2-5.3l0.9,0l0.2,5.3L162.9,195.1z M162.6,184.5l-0.2-5.3
						l0.9,0l0.2,5.3L162.6,184.5z M162.2,173.9l-0.2-5.3l0.9,0l0.2,5.3L162.2,173.9z M161.9,163.3l-0.2-5.3l0.9,0l0.2,5.3
						L161.9,163.3z"/>
					<polygon class="st10" points="161.5,152.7 161.4,149.3 164.8,149.3 164.8,150.3 162.4,150.3 162.5,152.6 					"/>
					<path class="st10" d="M239.1,150.3h-5.3v-0.9h5.3V150.3z M228.5,150.3h-5.3v-0.9h5.3V150.3z M217.9,150.3h-5.3v-0.9h5.3V150.3z
						 M207.2,150.3h-5.3v-0.9h5.3V150.3z M196.6,150.3h-5.3v-0.9h5.3V150.3z M186,150.3h-5.3v-0.9h5.3V150.3z M175.4,150.3h-5.3
						v-0.9h5.3V150.3z"/>
					<polygon class="st10" points="246.9,152.7 246.8,150.3 244.4,150.3 244.4,149.3 247.7,149.3 247.8,152.6 					"/>
					<path class="st10" d="M249.3,227l-0.2-5.3l0.9,0l0.2,5.3L249.3,227z M249,216.4l-0.2-5.3l0.9,0l0.2,5.3L249,216.4z
						 M248.6,205.8l-0.2-5.3l0.9,0l0.2,5.3L248.6,205.8z M248.3,195.1l-0.2-5.3l0.9,0l0.2,5.3L248.3,195.1z M247.9,184.5l-0.2-5.3
						l0.9,0l0.2,5.3L247.9,184.5z M247.6,173.9l-0.2-5.3l0.9,0l0.2,5.3L247.6,173.9z M247.2,163.3L247,158l0.9,0l0.2,5.3
						L247.2,163.3z"/>
				</g>
			</g>
		</g>
		<g>
			<path class="st10" d="M224.8,206h-34.9c-6.7,0-12.3-5.4-12.5-12.1c-0.2-6.1,4.2-11.2,10.1-12.1c1.5-5.9,6.9-10.1,13.1-10.1
				c5,0,9.6,2.6,12.2,6.9c1.1-0.3,2.2-0.5,3.4-0.5c6.1,0,11.4,4.8,12,10.8c3.1,1.5,5.2,4.6,5.3,8c0.1,2.4-0.8,4.7-2.4,6.4
				C229.4,205.1,227.2,206,224.8,206z M200.6,174.1c-5.4,0-10,3.8-11,9l-0.2,0.9l-0.9,0.1c-5.1,0.3-9,4.6-8.8,9.7
				c0.2,5.4,4.7,9.8,10.2,9.8h34.9c1.8,0,3.4-0.7,4.6-1.9c1.2-1.2,1.8-2.9,1.8-4.7c-0.1-2.7-1.9-5.2-4.5-6.2l-0.7-0.3l0-0.8
				c-0.2-5.2-4.6-9.3-9.7-9.3c-1.2,0-2.4,0.2-3.5,0.7l-1,0.4l-0.5-0.9C209.2,176.6,205.1,174.1,200.6,174.1z"/>
			<polygon class="st10" points="214.8,194.7 205.1,185.4 196.1,194.7 201.4,194.7 201.7,204.3 209.8,204.3 209.5,194.7 			"/>
		</g>
	</g>
</g>
<g id="Character_1_">
	<g>
		<path class="st15" d="M366.9,156.8c0.9,1.3,1.7,2.4,2.4,3.7c0.8,1.2,1.5,2.4,2.2,3.7c1.4,2.5,2.7,5,3.9,7.6
			c1.2,2.6,2.3,5.3,3.2,8.1c1,2.8,1.8,5.7,2.4,8.7l0.4,2.3l0,0.3l0.1,0.4c0,0.3,0.1,0.7,0.1,1c0,0.4,0,0.7,0,1.2l0,0.6l-0.1,0.7
			c-0.1,0.4-0.2,1-0.4,1.5c-0.2,0.5-0.4,1-0.7,1.5c-0.6,1-1.4,1.9-2.2,2.5c-1.7,1.3-3.3,1.7-4.5,1.9c-1.3,0.2-2.3,0.2-3.3,0.2
			c-1-0.1-1.8-0.2-2.7-0.3c-1.6-0.3-3.1-0.7-4.6-1.2c-2.9-0.9-5.5-2.1-8-3.3c-2.6-1.3-5-2.6-7.4-4.1l2.9-6.4
			c5.1,1.2,10.3,2.6,15.1,3.3c1.2,0.2,2.4,0.3,3.4,0.3c1,0,2-0.1,2.1-0.2c0.1,0-0.2-0.1-0.8,0.3c-0.3,0.2-0.7,0.6-0.9,1
			c-0.1,0.2-0.2,0.4-0.3,0.6c-0.1,0.1-0.1,0.4-0.2,0.5l-0.1,0.3c0,0.1,0,0.1,0,0.2c0,0.1,0,0,0,0c0,0,0-0.1,0-0.1l-0.1-0.2l-0.5-1.7
			c-1.3-4.5-3.3-9.1-5.6-13.6c-1.1-2.3-2.4-4.5-3.6-6.7c-0.6-1.1-1.3-2.2-1.9-3.3c-0.6-1.1-1.3-2.2-1.9-3.1L366.9,156.8z"/>
		<path class="st15" d="M351.8,187.8l-4.3-4.3l-4.3,9.6c0,0,4.1,2.3,7.7,0.6L351.8,187.8z"/>
		<polygon class="st15" points="341,180 337.8,188.2 343.1,193.1 347.5,183.5 		"/>
		<g>
			<g>
				
					<rect x="264.4" y="152" transform="matrix(0.9848 0.1735 -0.1735 0.9848 38.3637 -50.266)" class="st10" width="84.5" height="84.5"/>
				
					<rect x="264.4" y="152" transform="matrix(0.9848 0.1735 -0.1735 0.9848 38.3637 -50.266)" class="st16" width="84.5" height="84.5"/>
			</g>
			
				<rect x="268.6" y="156.2" transform="matrix(0.9848 0.1735 -0.1735 0.9848 38.3638 -50.2661)" class="st4" width="76.3" height="76.3"/>
			
				<ellipse transform="matrix(0.8191 -0.5737 0.5737 0.8191 -46.6948 205.8751)" class="st17" cx="303" cy="177" rx="14.1" ry="14.1"/>
			<polygon class="st18" points="320.7,197.5 295.5,215.1 283.9,198.6 264.9,211.9 262.5,225.3 337.7,238.5 340,225.1 			"/>
		</g>
		<path class="st19" d="M324.8,126.5c0,0.7-0.3,1.2-0.8,1.2c-0.4,0-0.8-0.5-0.8-1.2c0-0.7,0.3-1.2,0.8-1.2
			C324.4,125.3,324.8,125.8,324.8,126.5z"/>
		<path class="st20" d="M324.5,127.7c0,0-1.4,3.9-3.1,5.8c1.2,1.1,3.2,0.5,3.2,0.5L324.5,127.7z"/>
		<path class="st19" d="M327.1,122.8c-0.1,0-0.2,0-0.3-0.1c-1.4-1-2.7-0.5-2.8-0.5c-0.2,0.1-0.4,0-0.5-0.2c-0.1-0.2,0-0.4,0.2-0.5
			c0.1,0,1.7-0.7,3.5,0.5c0.2,0.1,0.2,0.4,0.1,0.5C327.3,122.7,327.2,122.8,327.1,122.8z"/>
		<path class="st15" d="M344.1,129.1c-0.4,6.1,0.1,18.5,4.8,22c0,0-1.1,5-12.3,6.4c-12.2,1.5-6.6-5.3-6.6-5.3
			c6.5-2.4,5.7-7.4,3.9-11.9L344.1,129.1z"/>
		<path class="st10" d="M374.4,394.6C374.4,394.6,374.3,394.6,374.4,394.6c-0.3-0.1-0.5-0.3-0.5-0.9c0-0.3,0.1-0.5,0.3-0.7
			c0.9-0.8,3.7-0.4,3.8-0.4c0.1,0,0.1,0.1,0.2,0.1c0,0.1,0,0.2-0.1,0.2C377.5,393.5,375.4,394.9,374.4,394.6z M377.5,392.9
			c-0.9-0.1-2.5-0.1-3,0.4c-0.1,0.1-0.2,0.2-0.2,0.4c0,0.4,0.1,0.4,0.2,0.5C375,394.4,376.5,393.7,377.5,392.9z"/>
		<path class="st10" d="M376.6,392.7c-1-0.3-2-0.9-2.1-1.5c0-0.2-0.1-0.5,0.3-0.7c0.3-0.2,0.5-0.2,0.9-0.2c1.2,0.3,2.5,2.3,2.5,2.4
			c0,0.1,0,0.1,0,0.2c0,0.1-0.1,0.1-0.2,0.1C377.7,393,377.2,392.9,376.6,392.7z M375.7,390.7c0,0-0.1,0-0.1,0c-0.2,0-0.4,0-0.6,0.1
			c-0.2,0.1-0.2,0.3-0.2,0.3c0.2,0.5,1.7,1.3,2.8,1.5C377.2,392,376.4,391,375.7,390.7z"/>
		<path class="st10" d="M313.7,408.2c-1.1,0-2.1-0.1-2.4-0.6c-0.1-0.2-0.2-0.5,0-0.9c0.1-0.2,0.3-0.4,0.6-0.5
			c1.4-0.4,4.3,1.3,4.4,1.3c0.1,0,0.1,0.1,0.1,0.2c0,0.1-0.1,0.1-0.2,0.2C315.7,408.1,314.7,408.2,313.7,408.2z M312.4,406.6
			c-0.1,0-0.3,0-0.4,0c-0.2,0-0.3,0.1-0.4,0.3c-0.1,0.2-0.1,0.4,0,0.4c0.4,0.5,2.5,0.5,4,0.3C314.8,407.3,313.3,406.6,312.4,406.6z"
			/>
		<path class="st10" d="M316.2,408C316.1,408,316.1,408,316.2,408c-1.1-0.5-3-2.2-2.9-3.2c0-0.2,0.2-0.5,0.7-0.5
			c0.4,0,0.8,0.1,1.1,0.3c1,0.9,1.3,3.1,1.3,3.2c0,0.1,0,0.1-0.1,0.2C316.2,408,316.2,408,316.2,408z M314.1,404.7c0,0-0.1,0-0.1,0
			c-0.4,0-0.4,0.2-0.4,0.2c-0.1,0.6,1.2,2,2.3,2.6c-0.1-0.6-0.4-2-1.1-2.5C314.6,404.7,314.4,404.7,314.1,404.7z"/>
		<polygon class="st15" points="325.2,407.8 317,407.8 316.2,388.7 324.4,388.7 		"/>
		<polygon class="st15" points="386.9,390.4 379.3,392.5 369.5,374.6 377.1,372.5 		"/>
		<path class="st19" d="M378.1,391.7l8.3-4.2c0.3-0.2,0.7-0.1,0.9,0.2l4.8,5.8c0.5,0.6,0.3,1.5-0.4,1.9c-2.9,1.4-4.4,2-8,3.8
			c-2.2,1.1-8.9,6.1-12.2,7c-3.3,0.9-4.7-2.3-3.4-3c5.8-2.9,8.1-7.8,9.1-10.3C377.3,392.3,377.7,391.9,378.1,391.7z"/>
		<path class="st19" d="M317,406.9h9c0.3,0,0.6,0.2,0.7,0.6l1.6,7.3c0.2,0.8-0.4,1.5-1.2,1.5c-3.3-0.1-7.9-0.2-12-0.2
			c-4.8,0-8.9,0.3-14.5,0.3c-3.4,0-4.3-3.4-2.9-3.7c6.5-1.4,11.7-1.6,17.3-5C315.7,407.1,316.3,406.9,317,406.9z"/>
		<path class="st19" d="M352.5,166.3c0.9,2.2,1.8,4.4,2.8,6.4c1.6,3.5,3.3,6.6,4.5,8.7c1.1,1.9,1.8,3,1.8,3l18-8.9
			c0,0-7.3-20.9-14.8-23.2C356.9,150,348.6,156.4,352.5,166.3z"/>
		<path class="st21" d="M360.5,168.4c-1.6,1.2-2.7,4.3-3.5,7.9c1,2,2,3.8,2.7,5.1c1.1,1.9,1.8,3,1.8,3l2.1-1
			C363.4,178.6,362.6,173.2,360.5,168.4z"/>
		<path class="st19" d="M314.4,179.6c0,2.8,0.1,5.9,0.2,9.3c0.4,9.3,1.4,20.8,3.3,35.1h44.1c0.3-6.8-4-39.8,2.6-71.7
			c0,0-7.6-1.5-14.8-1.9c-5.6-0.3-13.8-0.4-18.8,0c-6.5,0.6-12.7,2.3-12.7,2.3S314.4,157.3,314.4,179.6z"/>
		<path class="st15" d="M325.7,166.5c-0.8,1.6-1.5,2.8-2.2,4c-0.7,1.2-1.5,2.3-2.2,3.4c-1.5,2.2-3.1,4.3-4.8,6.4
			c-3.3,4.1-7,8.1-11.1,11.7c-2.1,1.8-4.3,3.5-6.9,5.1l-1,0.6l-0.3,0.1l-0.4,0.2l-0.7,0.3c-1,0.4-2,0.8-2.9,0.9
			c-1.9,0.4-3.8,0.4-5.5,0.3c-3.4-0.4-6.2-1.4-8.8-2.6c-1.3-0.6-2.5-1.3-3.7-2.1c-1.2-0.8-2.2-1.6-3.4-2.6l3.5-6
			c4.3,1.1,9.2,2.2,12.6,1.7c0.8-0.1,1.5-0.3,2-0.6c0.2-0.1,0.4-0.2,0.6-0.4c0,0,0.1-0.1,0.1-0.1l0.1,0l0.1-0.1l0.6-0.4
			c1.6-1.2,3.3-2.7,4.9-4.2c3.2-3.2,6.2-6.8,9.1-10.5c1.4-1.9,2.8-3.8,4.1-5.7c0.7-1,1.3-1.9,1.9-2.9c0.6-0.9,1.2-1.9,1.5-2.5
			L325.7,166.5z"/>
		<path class="st15" d="M277.2,187.2l-7.6-3.6l-0.7,10.2c0,0,5.9,1,9-1.3L277.2,187.2z"/>
		<polygon class="st15" points="260,185.3 263,193.1 268.9,193.8 269.6,183.6 		"/>
		<path class="st19" d="M331.2,161.1c-0.3,7.9-16.5,26-16.5,26L297.5,176c0,0,5.4-10.2,12.5-17.5
			C320.7,147.3,331.5,151.7,331.2,161.1z"/>
		<g>
			<polygon class="st21" points="316.2,388.7 316.6,398.6 324.8,398.6 324.4,388.7 			"/>
			<polygon class="st21" points="377.1,372.5 369.5,374.6 374.5,383.8 382.2,381.7 			"/>
		</g>
		<path class="st15" d="M347,124.6c-0.3,8.2-0.1,13-4.1,17.3c-6.1,6.4-16.2,2.9-18.4-5.2c-1.9-7.3-1-19.5,6.9-22.9
			C339.1,110.5,347.3,116.5,347,124.6z"/>
		<path class="st19" d="M330.7,128.5c-2.9-2.1-5.8-6.4-5.6-9.7c-2.7-0.1-4.6-4.6-3.1-7.9c0.9,2.1,4.2,0.6,5.5-1.1
			c-0.7-1.6-0.6-4.3,4.1-6.2c-0.4,1.4-0.2,3.6,4.5,2c5.7-2,15.7-0.7,12.8,6.1c4,0.7,9.2,9,4.8,13.3c-4.4,4.4-5.3,11.4-9.1,12.1
			S330.9,138.2,330.7,128.5z"/>
		<path class="st19" d="M346.2,111.6c2.6-1.2,6.9-0.7,9.1,2.6C352.2,112.9,350.4,112,346.2,111.6z"/>
		<path class="st15" d="M332.8,128.2c-0.1,1.9-0.9,3.7-1.9,5c-1.6,1.8-3.3,0.8-3.6-1.4c-0.3-1.9,0.1-5.2,2.1-6.2
			C331.3,124.5,332.9,126,332.8,128.2z"/>
		<g>
			<path class="st10" d="M333.6,224.1c0,0-3.9,62.4,3.5,85.4c11.7,36.5,32.5,73.7,32.5,73.7l14.9-4.5c0,0-16.4-39.3-21.8-70
				c-4.8-27.6-0.7-62.1-0.7-84.6C351.8,224.1,333.6,224.1,333.6,224.1z"/>
		</g>
		<path class="st21" d="M333,238c4.2-1.2,7.4-0.8,8.3,2.9c2.2,9.7-4.4,35.2-7.7,46.9C332.2,271,332.5,251,333,238z"/>
		<g>
			<path class="st19" d="M365.4,378.9c-0.1,0,3.9,4.6,3.9,4.6l16.3-4.9l-2.1-5.5L365.4,378.9z"/>
		</g>
		<g>
			<path class="st10" d="M317.9,224.1c0,0-12.4,52.7-13.3,77.8c-1,28.2,8.9,94.8,8.9,94.8h14c0,0,1.7-67.1,2.3-92.8
				c0.7-28,17.1-79.8,17.1-79.8H317.9z"/>
		</g>
		<g>
			<path class="st19" d="M310.8,391.1c-0.1,0,0.8,5.8,0.8,5.8h17l0.5-5.2L310.8,391.1z"/>
		</g>
		<path class="st10" d="M324.1,148.5c1.9-0.7,16.3-2.5,26.8-1.9c6,0.3,9.3,1,11.8,2.2c2.4,1.2-1.9,7.1-4,7.9
			c0.8,2.3-3.7,5.2-6.3,6.6c-1,2.1-11.3,4.1-17.3-0.5C330.5,159.1,318.7,150.4,324.1,148.5z"/>
	</g>
</g>
</svg>
