<?xml version="1.0" encoding="UTF-8" standalone="no"?>
<svg
   xmlns:dc="http://purl.org/dc/elements/1.1/"
   xmlns:cc="http://creativecommons.org/ns#"
   xmlns:rdf="http://www.w3.org/1999/02/22-rdf-syntax-ns#"
   xmlns:svg="http://www.w3.org/2000/svg"
   xmlns="http://www.w3.org/2000/svg"
   xmlns:sodipodi="http://sodipodi.sourceforge.net/DTD/sodipodi-0.dtd"
   xmlns:inkscape="http://www.inkscape.org/namespaces/inkscape"
   version="1.1"
   id="svg2"
   xml:space="preserve"
   width="415.74667"
   height="245.66667"
   viewBox="0 0 415.74667 245.66667"
   sodipodi:docname="BAT_01~2.eps"><metadata
     id="metadata8"><rdf:RDF><cc:Work
         rdf:about=""><dc:format>image/svg+xml</dc:format><dc:type
           rdf:resource="http://purl.org/dc/dcmitype/StillImage" /></cc:Work></rdf:RDF></metadata><defs
     id="defs6" /><sodipodi:namedview
     pagecolor="#ffffff"
     bordercolor="#666666"
     borderopacity="1"
     objecttolerance="10"
     gridtolerance="10"
     guidetolerance="10"
     inkscape:pageopacity="0"
     inkscape:pageshadow="2"
     inkscape:window-width="640"
     inkscape:window-height="480"
     id="namedview4" /><g
     id="g10"
     inkscape:groupmode="layer"
     inkscape:label="ink_ext_XXXXXX"
     transform="matrix(1.3333333,0,0,-1.3333333,0,245.66667)"><g
       id="g12"
       transform="scale(0.1)"><path
         d="m 1069.29,1326.13 -17.01,-16.95 -28.47,-14.94 -12.74,-41.78 17.13,-53.04 -35.512,-117.3 -146.852,126.8 h -43.609 l -129.164,241.35 h 1.25 v 47.86 c 0,0.83 -0.098,1.62 -0.125,2.44 l 62.585,166 31.098,11.57 c 4.086,1.34 7.039,5.19 7.039,9.73 0,5.65 -4.578,10.23 -10.226,10.23 l -42.657,-0.01 c -7.507,0.01 -13.711,-4.91 -16.988,-11.25 l -64.437,-119.78 c -14.856,11.61 -33.5,18.6 -53.821,18.6 -31.16,0 -58.453,-16.34 -73.961,-40.87 l -76.414,142.04 c -3.347,6.53 -9.351,11.26 -16.988,11.26 h -42.656 c -5.649,0 -10.231,-4.58 -10.231,-10.23 0,-4.54 2.949,-8.38 7.043,-9.72 l 31.098,-11.57 65.48,-173.69 c 4.559,-11.51 15.77,-19.67 28.907,-19.67 h 0.199 v -21.36 -1.58 -257.02 l -5.07,11.12 L 143.105,901.066 V 843.34 L 288.629,571.012 h 142.012 v 23.847 l 9.562,30.7 -20.539,38.55 -49.609,25.391 -78.024,145.781 H 601.387 938.316 1051.7 l 118.01,390.439 -100.42,100.41"
         style="fill:#ffffff;fill-opacity:1;fill-rule:nonzero;stroke:none"
         id="path14" /><path
         d="M 980.945,571.012 H 703.066 l -39.648,-74.09 39.645,-74.684 V 265.449 c 0,0 -12.52,40.61 -66.415,58.903 l -160.929,51.82 c 0,17.598 -19.992,31.789 -19.992,14.187 l 28.886,-50.8 c 0,0 205.746,-150.95 209.16,-152.899 6.848,-3.93 20.028,-7.859 37.403,3.922 25.25,17.109 128.531,158.688 134.797,261.707 36.488,14.301 56.605,28.352 56.605,28.352 0,0 -46.078,-32.102 -34.473,-87.832 l 24.961,-166.899 15.997,2.82 87.687,303.059 c 2.35,10.332 4.58,39.223 -35.805,39.223"
         style="fill:#ffffff;fill-opacity:1;fill-rule:nonzero;stroke:none"
         id="path16" /><path
         d="m 866.277,594.871 -308.203,-0.012 v 30.7 l 308.211,0.011 -0.008,-30.699"
         style="fill:#4fc5db;fill-opacity:1;fill-rule:nonzero;stroke:none"
         id="path18" /><path
         d="M 558.082,349.16 V 285.699"
         style="fill:#ffffff;fill-opacity:1;fill-rule:nonzero;stroke:none"
         id="path20" /><path
         d="M 527.41,360.148 V 308.5"
         style="fill:#ffffff;fill-opacity:1;fill-rule:nonzero;stroke:none"
         id="path22" /><path
         d="m 430.543,224.832 c -0.012,-1.023 -0.191,-1.812 -0.52,-2.594 -0.48,-1.168 -1.378,-2.258 -2.468,-2.988 -1.114,-0.73 -2.219,-1.109 -3.727,-1.121 H 398.02 c -19.188,0 -34.735,-15.559 -34.735,-34.738 0,-19.18 15.547,-34.743 34.735,-34.743 h 25.808 c 10.418,0 20.527,2.141 29.656,6.012 13.719,5.809 25.282,15.418 33.489,27.559 8.215,12.121 13.047,26.961 13.031,42.613 v 162.656 c 0,19.184 -15.551,34.742 -34.731,34.742 -19.183,0 -34.73,-15.558 -34.73,-34.742 V 224.832"
         style="fill:#4fc5db;fill-opacity:1;fill-rule:nonzero;stroke:none"
         id="path24" /><path
         d="m 471.5,308.5 h 28.504"
         style="fill:#4fc5db;fill-opacity:1;fill-rule:nonzero;stroke:none"
         id="path26" /><path
         d="m 471.5,277.84 h 28.504"
         style="fill:#4fc5db;fill-opacity:1;fill-rule:nonzero;stroke:none"
         id="path28" /><path
         d="m 471.5,247.34 h 28.504"
         style="fill:#4fc5db;fill-opacity:1;fill-rule:nonzero;stroke:none"
         id="path30" /><path
         d="m 707.875,371.441 h 33.855 v 79.668 h -33.855 v -79.668"
         style="fill:#ffffff;fill-opacity:1;fill-rule:nonzero;stroke:none"
         id="path32" /><path
         d="m 896.938,343.199 h 65.929"
         style="fill:#ffffff;fill-opacity:1;fill-rule:nonzero;stroke:none"
         id="path34" /><path
         d="m 900.273,312.719 h 56.43"
         style="fill:#ffffff;fill-opacity:1;fill-rule:nonzero;stroke:none"
         id="path36" /><path
         d="m 1045.82,215.91 c 1.03,0 1.82,-0.191 2.6,-0.512 1.16,-0.488 2.26,-1.386 2.99,-2.468 0.73,-1.11 1.11,-2.231 1.12,-3.731 v -25.808 c 0,-19.18 15.56,-34.743 34.74,-34.743 19.18,0 34.73,15.563 34.73,34.743 v 25.808 c 0.01,10.422 -2.13,20.531 -6,29.66 -5.81,13.719 -15.42,25.282 -27.56,33.481 -12.12,8.219 -26.96,13.051 -42.62,13.031 H 883.164 c -19.18,0 -34.73,-15.551 -34.73,-34.73 0,-19.172 15.55,-34.719 34.73,-34.719 l 162.656,-0.012"
         style="fill:#4fc5db;fill-opacity:1;fill-rule:nonzero;stroke:none"
         id="path38" /><path
         d="m 962.164,256.871 v 28.5"
         style="fill:#4fc5db;fill-opacity:1;fill-rule:nonzero;stroke:none"
         id="path40" /><path
         d="m 992.813,256.871 v 28.5"
         style="fill:#4fc5db;fill-opacity:1;fill-rule:nonzero;stroke:none"
         id="path42" /><path
         d="m 1023.32,256.871 v 28.5"
         style="fill:#4fc5db;fill-opacity:1;fill-rule:nonzero;stroke:none"
         id="path44" /><path
         d="m 1443.62,1249.99 h 60.22 c 9.16,0 15.95,-0.78 21.47,-4.7 6.85,-4.88 10.73,-13.7 10.39,-23.4 -1.1,-17.01 -11.36,-26.38 -28.93,-26.38 h -63.15 z m 0,117.32 h 51.04 c 9.09,0 16.57,-2.74 21.63,-7.9 4.94,-5.03 7.45,-12.25 7.28,-20.87 -0.33,-16.07 -10.88,-25.29 -28.91,-25.29 h -51.04 z m -68.37,-238.4 h 135.69 c 60.06,0 98.85,36.34 98.85,92.59 0,29.23 -13.04,52.84 -36.16,66.2 14.61,12.85 23.65,32.57 23.65,52.79 0,56.24 -38.48,92.59 -98.03,92.59 h -124 c -3.4,0 -6.16,-2.76 -6.16,-6.16 v -291.85 c 0,-3.4 2.76,-6.16 6.16,-6.16"
         style="fill:#07192d;fill-opacity:1;fill-rule:nonzero;stroke:none"
         id="path46" /><path
         d="m 1940.17,1366.9 h 71.91 v -231.83 c 0,-3.4 2.76,-6.16 6.16,-6.16 h 60.54 c 3.41,0 6.16,2.76 6.16,6.16 v 231.83 h 71.5 c 3.4,0 6.16,2.76 6.16,6.16 v 54.28 c 0,3.4 -2.76,6.16 -6.16,6.16 h -216.27 c -3.41,0 -6.18,-2.76 -6.18,-6.16 v -54.28 c 0,-3.4 2.77,-6.16 6.18,-6.16"
         style="fill:#07192d;fill-opacity:1;fill-rule:nonzero;stroke:none"
         id="path48" /><path
         d="m 1619.08,1035.82 h -66.38 c -2.49,0 -4.73,-1.49 -5.69,-3.78 l -65.92,-157.743 -65.91,157.743 c -0.97,2.29 -3.2,3.78 -5.69,3.78 h -66.38 c -3.41,0 -6.17,-2.75 -6.17,-6.16 v -9.19 c 0,-0.85 0.18,-1.7 0.53,-2.48 l 125.66,-285.592 c 0.99,-2.218 3.2,-3.668 5.65,-3.668 h 25.88 c 2.46,0 4.67,1.45 5.65,3.7 l 124.42,285.59 c 0.34,0.77 0.51,1.61 0.51,2.45 v 9.19 c 0,3.41 -2.76,6.16 -6.16,6.16"
         style="fill:#07192d;fill-opacity:1;fill-rule:nonzero;stroke:none"
         id="path50" /><path
         d="m 1673.62,793.238 c -3.41,0 -6.16,-2.758 -6.16,-6.156 v -49.691 c 0,-3.403 2.75,-6.161 6.16,-6.161 h 128.87 c 3.4,0 6.16,2.758 6.16,6.161 v 49.691 c 0,3.398 -2.76,6.156 -6.16,6.156 h -26.96 V 975.07 h 23.62 c 3.4,0 6.16,2.758 6.16,6.16 v 48.43 c 0,3.41 -2.76,6.16 -6.16,6.16 h -122.19 c -3.41,0 -6.16,-2.75 -6.16,-6.16 v -48.43 c 0,-3.402 2.75,-6.16 6.16,-6.16 h 23.62 V 793.238 h -26.96"
         style="fill:#07192d;fill-opacity:1;fill-rule:nonzero;stroke:none"
         id="path52" /><path
         d="m 2295.93,902.18 c -6.69,-6.809 -15.71,-10.403 -26.08,-10.403 h -56.45 v 77.446 h 56.45 c 22.05,0 36.86,-15.313 36.86,-38.196 0.18,-11.343 -3.64,-21.593 -10.78,-28.847 z m 83.64,27.699 c 0,52.855 -37.55,106.361 -109.23,106.361 -27.86,0.28 -56,0.19 -83.22,0.1 -13.87,-0.05 -27.75,-0.1 -41.68,-0.1 -3.4,0 -6.16,-2.76 -6.16,-6.16 V 737.809 c 0,-3.399 2.76,-6.161 6.16,-6.161 h 62.63 c 3.39,0 6.16,2.762 6.16,6.161 v 90.293 h 42.61 l 58.31,-93.551 c 1.13,-1.813 3.1,-2.903 5.23,-2.903 h 66.81 c 3.4,0 6.16,2.762 6.16,6.161 v 8.769 c 0,1.231 -0.37,2.442 -1.06,3.461 l -62.12,91.602 c 31.06,17.89 49.4,50.371 49.4,88.238"
         style="fill:#07192d;fill-opacity:1;fill-rule:nonzero;stroke:none"
         id="path54" /><path
         d="m 2966.78,1035.82 h -62.63 c -3.4,0 -6.16,-2.75 -6.16,-6.16 V 878.977 l -153.53,156.253 c -1.16,1.18 -2.74,1.84 -4.39,1.84 h -19.63 c -3.41,0 -6.16,-2.75 -6.16,-6.16 V 737.391 c 0,-3.403 2.75,-6.161 6.16,-6.161 h 62.22 c 3.39,0 6.16,2.758 6.16,6.161 V 889.367 L 2943.6,732.238 c 1.17,-1.179 2.75,-1.84 4.4,-1.84 h 18.78 c 3.41,0 6.16,2.762 6.16,6.161 v 293.101 c 0,3.41 -2.75,6.16 -6.16,6.16"
         style="fill:#07192d;fill-opacity:1;fill-rule:nonzero;stroke:none"
         id="path56" /><path
         d="m 1525.74,504.5 c -6.69,-6.789 -15.71,-10.391 -26.07,-10.391 h -56.47 v 77.442 h 56.47 c 22.04,0 36.84,-15.313 36.84,-38.199 0.2,-11.352 -3.63,-21.582 -10.77,-28.852 z m 34.24,-60.531 c 31.06,17.89 49.4,50.371 49.4,88.23 0,52.86 -37.54,106.36 -109.23,106.36 -27.86,0.293 -56,0.191 -83.23,0.101 -13.86,-0.051 -27.74,-0.101 -41.67,-0.101 -3.4,0 -6.16,-2.75 -6.16,-6.161 V 340.141 c 0,-3.403 2.76,-6.161 6.16,-6.161 h 62.63 c 3.4,0 6.16,2.758 6.16,6.161 v 90.281 h 42.61 l 58.31,-93.543 c 1.13,-1.809 3.1,-2.899 5.23,-2.899 h 66.8 c 3.41,0 6.16,2.758 6.16,6.161 v 8.769 c 0,1.231 -0.36,2.442 -1.05,3.449 l -62.12,91.61"
         style="fill:#ffffff;fill-opacity:1;fill-rule:nonzero;stroke:none"
         id="path58" /><path
         d="m 2493.41,400.66 h -113.25 v 51.711 h 102.39 c 3.4,0 6.16,2.758 6.16,6.168 v 54.691 c 0,3.411 -2.76,6.168 -6.16,6.168 h -102.39 v 51.731 h 108.53 c 3.4,0 6.16,2.762 6.16,6.172 v 54.679 c 0,3.411 -2.76,6.168 -6.16,6.168 h -177.75 c -3.4,0 -6.16,-2.757 -6.16,-6.168 V 339.719 c 0,-3.399 2.76,-6.16 6.16,-6.16 h 182.47 c 3.4,0 6.16,2.761 6.16,6.16 V 394.5 c 0,3.398 -2.76,6.16 -6.16,6.16"
         style="fill:#ffffff;fill-opacity:1;fill-rule:nonzero;stroke:none"
         id="path60" /><path
         d="m 2307.41,1290.43 20.13,-48.15 h -40.25 z m -137.99,-161.52 h 66.39 c 2.49,0 4.73,1.49 5.69,3.79 l 18.65,44.64 h 94.53 l 18.66,-44.64 c 0.96,-2.3 3.2,-3.79 5.68,-3.79 h 66.39 c 3.4,0 6.16,2.76 6.16,6.16 v 9.18 c 0,0.86 -0.17,1.7 -0.53,2.49 l -125.67,285.58 c -0.99,2.23 -3.19,3.68 -5.64,3.68 h -25.88 c -2.46,0 -4.68,-1.45 -5.66,-3.7 l -124.41,-285.59 c -0.34,-0.77 -0.52,-1.61 -0.52,-2.46 v -9.18 c 0,-3.4 2.77,-6.16 6.16,-6.16"
         style="fill:#07192d;fill-opacity:1;fill-rule:nonzero;stroke:none"
         id="path62" /><path
         d="m 1789.62,1290.43 20.14,-48.15 h -40.27 z m -137.99,-161.52 h 66.39 c 2.49,0 4.72,1.49 5.69,3.79 l 18.64,44.64 h 94.53 l 18.67,-44.64 c 0.95,-2.3 3.2,-3.79 5.68,-3.79 h 66.39 c 3.4,0 6.16,2.76 6.16,6.16 v 9.18 c 0,0.86 -0.18,1.7 -0.53,2.49 l -125.67,285.58 c -0.99,2.23 -3.2,3.68 -5.65,3.68 h -25.88 c -2.46,0 -4.67,-1.45 -5.65,-3.7 l -124.41,-285.59 c -0.35,-0.77 -0.52,-1.61 -0.52,-2.46 v -9.18 c 0,-3.4 2.76,-6.16 6.16,-6.16"
         style="fill:#07192d;fill-opacity:1;fill-rule:nonzero;stroke:none"
         id="path64" /><path
         d="m 2115.14,569.289 c 32.41,0 55.82,-14.969 65.47,-40.988 0.5,-1.481 1.14,-2.86 1.58,-4.41 0.74,-2.661 3.16,-4.493 5.93,-4.493 h 63.05 c 1.81,0 3.53,0.793 4.7,2.161 1.16,1.382 1.67,3.203 1.39,4.98 -13.71,84.481 -82.22,114.57 -141.78,114.57 -77.35,0 -155.64,-53.168 -155.64,-154.789 0,-0.148 0.02,-0.269 0.02,-0.41 0,-0.16 -0.02,-0.301 -0.02,-0.461 0,-101.621 78.29,-154.801 155.64,-154.801 59.56,0 128.07,30.102 141.78,114.582 0.28,1.77 -0.23,3.59 -1.39,4.969 -1.17,1.371 -2.89,2.172 -4.7,2.172 h -63.05 c -2.77,0 -5.19,-1.832 -5.93,-4.492 -0.44,-1.551 -1.08,-2.93 -1.58,-4.41 -9.65,-26.028 -33.06,-41 -65.47,-41 -44.71,0 -77.15,34.91 -77.15,82.992 -0.01,0.019 -0.02,0.039 -0.04,0.059 0.01,0.269 0.04,0.519 0.04,0.789 0,48.082 32.44,82.98 77.15,82.98"
         style="fill:#ffffff;fill-opacity:1;fill-rule:nonzero;stroke:none"
         id="path66" /><path
         d="m 2640.2,798.34 h -113.25 v 51.711 h 102.4 c 3.39,0 6.16,2.754 6.16,6.16 v 54.699 c 0,3.403 -2.77,6.164 -6.16,6.164 h -102.4 v 51.731 h 108.53 c 3.41,0 6.16,2.758 6.16,6.16 v 54.695 c 0,3.41 -2.75,6.16 -6.16,6.16 h -177.75 c -3.39,0 -6.16,-2.75 -6.16,-6.16 V 737.391 c 0,-3.403 2.77,-6.161 6.16,-6.161 h 182.47 c 3.4,0 6.16,2.758 6.16,6.161 l 0.01,54.789 c 0,3.402 -2.77,6.16 -6.17,6.16"
         style="fill:#07192d;fill-opacity:1;fill-rule:nonzero;stroke:none"
         id="path68" /><path
         d="m 2065.21,798.34 h -113.26 v 51.711 h 102.4 c 3.4,0 6.16,2.754 6.16,6.16 v 54.699 c 0,3.403 -2.76,6.164 -6.16,6.164 h -102.4 v 51.731 h 108.54 c 3.4,0 6.16,2.758 6.16,6.16 v 54.695 c 0,3.41 -2.76,6.16 -6.16,6.16 h -177.76 c -3.39,0 -6.16,-2.75 -6.16,-6.16 V 737.391 c 0,-3.403 2.77,-6.161 6.16,-6.161 h 182.48 c 3.39,0 6.16,2.758 6.16,6.161 l 0.01,54.789 c 0,3.402 -2.78,6.16 -6.17,6.16"
         style="fill:#07192d;fill-opacity:1;fill-rule:nonzero;stroke:none"
         id="path70" /><path
         d="m 1801.26,495.09 20.13,-48.168 -40.26,0.008 z M 1663.27,333.559 h 66.39 c 2.49,0 4.72,1.5 5.68,3.793 l 18.65,44.636 h 94.54 l 18.65,-44.636 c 0.96,-2.293 3.2,-3.793 5.69,-3.793 h 66.38 c 3.41,0 6.16,2.761 6.16,6.171 v 9.18 c 0,0.86 -0.18,1.699 -0.52,2.488 l -125.68,285.571 c -0.99,2.242 -3.19,3.679 -5.64,3.679 h -25.88 c -2.46,0 -4.67,-1.437 -5.65,-3.699 L 1657.62,351.371 c -0.33,-0.769 -0.51,-1.609 -0.51,-2.461 v -9.18 c 0,-3.41 2.75,-6.171 6.16,-6.171"
         style="fill:#ffffff;fill-opacity:1;fill-rule:nonzero;stroke:none"
         id="path72" /><path
         d="m 660.684,491.809 -2.715,5.121 2.402,4.5 h -44.984 v 88.629 h -9.617 v -98.25 h 54.914"
         style="fill:#4fc5db;fill-opacity:1;fill-rule:nonzero;stroke:none"
         id="path74" /><path
         d="M 867.891,590.059 H 560.082 v 38.523 h 307.809 v -38.523"
         style="fill:#4fc5db;fill-opacity:1;fill-rule:nonzero;stroke:none"
         id="path76" /><path
         d="m 630.094,1382.93 c -2.656,0 -4.813,-2.15 -4.813,-4.81 0,-6.67 -5.426,-12.1 -12.101,-12.1 -6.676,0 -12.106,5.43 -12.106,12.1 0,2.66 -2.152,4.81 -4.808,4.81 -2.653,0 -4.805,-2.15 -4.805,-4.81 0,-11.98 9.738,-21.72 21.719,-21.72 11.976,0 21.718,9.74 21.718,21.72 0,2.66 -2.156,4.81 -4.804,4.81"
         style="fill:#07192d;fill-opacity:1;fill-rule:nonzero;stroke:none"
         id="path78" /><path
         d="m 601.121,1392.16 c 1.098,0 2.199,0.38 3.102,1.14 l 24.097,20.35 c 2.028,1.72 2.285,4.75 0.571,6.78 -1.711,2.03 -4.746,2.28 -6.774,0.57 l -24.097,-20.36 c -2.028,-1.71 -2.282,-4.74 -0.575,-6.76 0.953,-1.13 2.313,-1.72 3.676,-1.72"
         style="fill:#07192d;fill-opacity:1;fill-rule:nonzero;stroke:none"
         id="path80" /><path
         d="M 674.801,1450.99 H 500.102 v 22.22 l 53.078,1.43 16.492,23.65 h 105.129 v -47.3"
         style="fill:#4fc5db;fill-opacity:1;fill-rule:nonzero;stroke:none"
         id="path82" /><path
         d="m 544.672,1574.82 c 0.394,0.64 42.109,10.84 42.109,10.84 0,0 35.121,-6.96 36.41,-7.99 0.586,-0.48 29.914,-13.96 41.743,-35.78 14.054,-25.93 9.379,-43.76 9.379,-43.76 l -69.625,2.06 -29.227,2.74 -7.418,10.42 -12.473,16.75 -34.218,5.97 -8.532,8.72 31.852,30.03"
         style="fill:#07192d;fill-opacity:1;fill-rule:nonzero;stroke:none"
         id="path84" /><path
         d="m 1117.2,183.391 c 0,-16.5 -13.43,-29.922 -29.93,-29.922 -16.5,0 -29.93,13.422 -29.93,29.922 v 25.859 c -0.02,2.34 -0.63,4.34 -1.94,6.359 -1.25,1.86 -3.07,3.371 -5.13,4.231 -1.41,0.582 -2.81,0.859 -4.41,0.879 H 883.164 c -16.5,0 -29.922,13.422 -29.922,29.922 0,16.507 13.422,29.929 29.922,29.929 h 74.195 v -23.691 c 0,-2.668 2.149,-4.82 4.805,-4.82 2.656,0 4.805,2.152 4.805,4.82 v 23.691 h 21.039 v -23.691 c 0,-2.668 2.152,-4.82 4.805,-4.82 2.656,0 4.808,2.152 4.808,4.82 v 23.691 h 20.889 v -23.691 c 0,-2.668 2.15,-4.82 4.81,-4.82 2.65,0 4.81,2.152 4.81,4.82 v 23.691 h 17.7 c 0.02,0 0.05,0 0.08,0 14.28,0 28.05,-4.218 39.84,-12.199 11.49,-7.769 20.42,-18.621 25.83,-31.391 3.67,-8.679 5.62,-18.289 5.62,-27.781 z m -224.387,210.41 c -10.797,51.828 30.746,81.648 32.519,82.89 v 0 l -5.504,7.887 c 0,-0.008 -0.004,-0.008 -0.008,-0.008 -1.047,-0.718 -82.812,-56.711 -213.867,-57.519 l -37.09,69.859 37.082,69.281 H 871.09 980.945 c 13.121,0 22.335,-3.191 27.375,-9.511 6.43,-8.051 4.76,-19.348 3.81,-23.559 L 958.574,348.012 h -58.91 z M 728.48,194.551 c -14.703,-9.961 -25.683,-7.52 -32.191,-3.801 -3.207,2.059 -69.691,50.711 -133.402,97.391 v 54.91 l 72.218,-23.25 c 50.715,-17.211 63.247,-55.403 63.364,-55.781 l 9.398,-30.489 v 183.891 h 3.188 l -0.059,0.109 c 63.965,1.078 115.609,14.989 149.438,27.5 C 849.984,346.129 753.922,211.789 728.48,194.551 Z M 553.277,295.18 c -7.129,5.218 -14.179,10.39 -21.054,15.441 v 42.309 l 21.054,-6.789 z m -30.672,22.48 c -6.175,4.531 -12.07,8.852 -17.796,13.051 v 31.039 l 17.796,-5.719 z m 40.282,282.02 v 21.07 h 298.59 V 599.68 Z M 461.117,840.09 H 284.004 l 82.519,-154.18 49.606,-25.39 18.891,-35.442 -8.969,-28.777 -0.223,-20.492 H 291.516 L 147.91,844.551 v 54.316 L 462.512,1170.64 554.68,997.926 c 26.074,-48.52 31.48,-90.219 15.23,-117.406 -16.039,-26.829 -52.64,-40.43 -108.793,-40.43 z m 13.535,654.48 -66.254,175.74 -33.332,12.4 c -2.222,0.73 -3.726,2.8 -3.726,5.15 0,2.99 2.433,5.43 5.422,5.43 l 42.656,-0.01 c 5.262,0 9.895,-3.15 12.762,-8.73 l 82.808,-153.94 h 24.637 c 14.496,0 26.293,-11.8 26.293,-26.29 0,-14.5 -11.797,-26.3 -26.293,-26.3 h -40.566 c -10.844,0 -20.438,6.53 -24.407,16.55 z m 112.129,86.28 c 44,0 80.09,-34.53 82.59,-77.92 h -93.91 c 0.019,0.47 0.07,0.92 0.07,1.39 0,19.8 -16.105,35.9 -35.906,35.9 h -18.887 l -2.343,4.36 c 14.898,21.87 39.988,36.27 68.386,36.27 z m 122.528,103.78 c 2.168,4.18 6.636,8.66 12.707,8.66 0.004,0 0.004,0 0.004,0 h 42.664 c 2.988,0 5.418,-2.43 5.418,-5.42 0,-2.36 -1.497,-4.43 -3.907,-5.22 l -33.148,-12.34 -56.692,-150.35 c -4.636,19.09 -15.25,35.82 -29.695,48.22 z M 552.566,1455.07 v 0.01 h -48.503 v 13.33 h 35.562 c 15.961,0 29.512,10.48 34.168,24.91 h 95.715 v -38.25 z m -48.5,-71.11 v 61.51 h 38.887 v -18.08 c 0,-22.47 -17.047,-41.03 -38.887,-43.43 z m 48.5,43.43 v 18.08 h 32.711 v -18.07 c 0,-45.82 -36.004,-83.39 -81.211,-85.89 v 32.82 c 27.149,2.44 48.5,25.29 48.5,53.06 z m 189.758,-116.71 c -5.23,3.56 -9.691,7.58 -14.082,11.56 -1.289,1.17 -2.617,2.33 -3.957,3.5 -5.699,32.44 -34.015,57.19 -68.074,57.19 -2.656,0 -4.809,-2.15 -4.809,-4.81 0,-2.65 2.153,-4.8 4.809,-4.8 31.23,0 56.93,-24.16 59.387,-54.77 h -62.106 c -8.273,13.65 -23.222,22.83 -40.312,22.83 -9.957,0 -19.508,-3.11 -27.617,-9 -4.301,-3.12 -8.239,-6.69 -12.047,-10.14 -12.578,-11.4 -25.582,-23.19 -56.098,-23.19 h -13.355 v 32.96 c 50.492,2.52 90.824,44.28 90.824,95.39 v 18.07 h 75.293 z m -82.246,-11.63 c -0.351,3.42 -1.094,6.73 -2.133,9.89 h 67.453 v 2.94 c 5.063,-4.5 10.555,-9.03 17.383,-12.83 z m -101.101,0 c 8.48,4.72 14.925,10.56 20.996,16.07 3.781,3.43 7.355,6.66 11.238,9.47 6.457,4.7 14.055,7.17 21.969,7.17 19.066,0 34.851,-14.28 37.218,-32.71 z m 235.238,-85.32 h -0.02 L 910.117,997.777 c 0.059,-0.097 5.664,-9.953 1.465,-17.246 -3.769,-6.535 -14.762,-9.988 -31.781,-9.988 H 664.473 c -32.727,0 -48.012,30.467 -48.735,31.937 L 504.063,1210.5 v 78.94 h 151.324 4.933 26.555 v -75.71 h -27.383 c -2.656,0 -4.804,-2.15 -4.804,-4.81 0,-2.65 2.148,-4.8 4.804,-4.8 h 36.996 v 85.32 h 57.203 z m 200.93,-140.08 38.095,125.81 -17.13,53.04 11.71,38.42 26.69,14 14.78,14.42 94.98,-94.99 -116.14,-384.26 h -77.107 c 32.087,68.523 9.774,125.246 -10.195,162.39 L 859.672,1190.63 Z M 946.969,307.91 941.84,290.191 h -33.524 l -2.656,17.719 z m 2.781,9.621 h -45.527 l -3.125,20.86 h 54.695 z m -454.551,-4.23 h -23.707 c -2.648,0 -4.804,-2.153 -4.804,-4.801 0,-2.66 2.156,-4.82 4.804,-4.82 h 23.707 v -21.02 h -23.707 c -2.648,0 -4.804,-2.16 -4.804,-4.82 0,-2.649 2.156,-4.801 4.804,-4.801 h 23.707 v -20.891 h -23.707 c -2.648,0 -4.804,-2.148 -4.804,-4.808 0,-2.649 2.156,-4.809 4.804,-4.809 h 23.707 v -17.699 c 0.012,-14.312 -4.207,-28.113 -12.211,-39.922 -7.769,-11.488 -18.613,-20.43 -31.371,-25.828 -8.687,-3.672 -18.281,-5.613 -27.762,-5.613 -0.007,0 -0.015,0 -0.027,0 H 398.02 c -16.5,0 -29.93,13.422 -29.93,29.922 0,16.5 13.43,29.918 29.93,29.918 h 25.851 c 2.344,0.031 4.352,0.64 6.359,1.941 1.872,1.25 3.375,3.078 4.235,5.141 0.594,1.429 0.871,2.839 0.883,4.418 v 162.679 c 0,16.5 13.422,29.922 29.925,29.922 16.5,0 29.926,-13.422 29.926,-29.922 z m 595.941,-36.973 c -13.38,9.063 -29.02,13.863 -45.22,13.863 -0.03,0 -0.07,0 -0.1,0 h -93.972 l 69.592,240.528 c 1.32,5.84 3.43,20.652 -5.61,31.972 -6.95,8.7 -18.689,13.118 -34.885,13.118 H 871.09 v 75.382 l 95.105,179.289 h 89.085 l 119.86,396.6 -105.84,105.84 -19.9,-19.82 -29.61,-15.53 -13.75,-45.16 17.12,-53.04 -32.93,-108.77 -142.609,123.13 h -0.371 -42.145 l -40.515,75.71 h 37.64 v 9.61 h -17.882 c -11.071,0 -19.813,1.57 -27.086,4.09 l -78.141,146 v 50.88 l 61.375,162.81 28.875,10.74 c 6.192,2.04 10.348,7.78 10.348,14.3 0,8.29 -6.746,15.03 -15.035,15.03 l -42.657,-0.01 c -0.007,0 -0.007,0 -0.011,0 -8.688,0 -16.825,-5.3 -21.211,-13.78 l -61.856,-114.97 c -14.844,10.25 -32.781,16.32 -52.168,16.32 -29.929,0 -56.57,-14.32 -73.453,-36.46 l -72.644,135.03 c -4.461,8.68 -12.414,13.86 -21.266,13.86 h -42.656 c -8.289,0 -15.032,-6.74 -15.032,-15.03 0,-6.52 4.153,-12.26 10.165,-14.23 l 29.05,-10.81 64.739,-171.71 c 4.882,-12.34 15.898,-20.72 28.765,-22.36 v -84.63 c -4.215,0.75 -6.945,2.43 -9.972,4.31 -4.668,2.89 -9.957,6.16 -20.118,6.16 -10.16,0 -15.449,-3.27 -20.117,-6.16 -4.09,-2.54 -7.625,-4.73 -15.047,-4.73 -7.414,0 -10.949,2.19 -15.035,4.73 -4.664,2.89 -9.949,6.16 -20.105,6.16 -10.16,0 -15.446,-3.27 -20.11,-6.16 -4.09,-2.54 -7.621,-4.73 -15.043,-4.73 -7.418,0 -10.949,2.19 -15.039,4.73 -4.66,2.89 -9.945,6.16 -20.101,6.16 -10.153,0 -15.438,-3.27 -20.106,-6.16 -4.086,-2.54 -7.609,-4.73 -15.027,-4.73 -2.652,0 -4.805,-2.16 -4.805,-4.81 0,-2.66 2.153,-4.81 4.805,-4.81 10.156,0 15.437,3.28 20.101,6.17 4.086,2.54 7.618,4.73 15.032,4.73 7.414,0 10.945,-2.19 15.031,-4.73 4.668,-2.89 9.953,-6.17 20.109,-6.17 10.157,0 15.446,3.28 20.106,6.17 4.094,2.54 7.629,4.73 15.047,4.73 7.414,0 10.949,-2.19 15.039,-4.73 4.66,-2.89 9.949,-6.17 20.101,-6.17 10.16,0 15.45,3.28 20.118,6.17 4.089,2.54 7.625,4.73 15.046,4.73 7.422,0 10.957,-2.19 15.051,-4.73 3.813,-2.36 8.086,-4.95 15.039,-5.82 v -32.63 c -4.215,0.74 -6.945,2.43 -9.972,4.31 -4.668,2.89 -9.957,6.17 -20.118,6.17 -10.16,0 -15.449,-3.28 -20.117,-6.17 -4.09,-2.54 -7.625,-4.73 -15.047,-4.73 -7.414,0 -10.949,2.19 -15.035,4.73 -4.664,2.89 -9.949,6.17 -20.105,6.17 -10.16,0 -15.446,-3.28 -20.11,-6.17 -4.09,-2.54 -7.621,-4.73 -15.043,-4.73 -7.418,0 -10.949,2.19 -15.039,4.73 -4.66,2.89 -9.945,6.17 -20.101,6.17 -10.153,0 -15.438,-3.28 -20.106,-6.17 -4.086,-2.54 -7.609,-4.73 -15.027,-4.73 -2.652,0 -4.805,-2.16 -4.805,-4.81 0,-2.65 2.153,-4.81 4.805,-4.81 10.156,0 15.437,3.28 20.101,6.17 4.086,2.54 7.618,4.73 15.032,4.73 7.414,0 10.945,-2.19 15.031,-4.73 4.668,-2.89 9.953,-6.17 20.109,-6.17 10.157,0 15.446,3.28 20.106,6.17 4.094,2.54 7.629,4.73 15.047,4.73 7.414,0 10.949,-2.19 15.039,-4.73 4.66,-2.89 9.949,-6.17 20.101,-6.17 10.16,0 15.45,3.28 20.118,6.17 4.089,2.54 7.625,4.73 15.046,4.73 7.422,0 10.957,-2.19 15.051,-4.73 3.813,-2.36 8.086,-4.95 15.039,-5.83 v -32.63 c -4.215,0.76 -6.945,2.44 -9.972,4.32 -4.668,2.89 -9.957,6.17 -20.118,6.17 -10.16,0 -15.449,-3.28 -20.117,-6.17 -4.09,-2.54 -7.625,-4.74 -15.047,-4.74 -7.414,0 -10.949,2.2 -15.035,4.74 -4.664,2.89 -9.949,6.17 -20.105,6.17 -10.16,0 -15.446,-3.28 -20.11,-6.17 -4.09,-2.54 -7.621,-4.74 -15.043,-4.74 -7.418,0 -10.949,2.2 -15.039,4.74 -4.66,2.89 -9.945,6.17 -20.101,6.17 -10.153,0 -15.438,-3.28 -20.106,-6.17 -4.086,-2.54 -7.609,-4.74 -15.027,-4.74 -2.652,0 -4.805,-2.14 -4.805,-4.8 0,-2.66 2.153,-4.8 4.805,-4.8 10.156,0 15.437,3.27 20.101,6.16 4.086,2.54 7.618,4.73 15.032,4.73 7.414,0 10.945,-2.19 15.031,-4.73 4.668,-2.89 9.953,-6.16 20.109,-6.16 10.157,0 15.446,3.27 20.106,6.16 4.094,2.54 7.629,4.73 15.047,4.73 7.414,0 10.949,-2.19 15.039,-4.73 4.66,-2.89 9.949,-6.16 20.101,-6.16 10.16,0 15.45,3.27 20.118,6.16 4.089,2.54 7.625,4.73 15.046,4.73 7.422,0 10.957,-2.19 15.051,-4.73 3.813,-2.36 8.086,-4.95 15.039,-5.83 v -78.84 l -354.488,-306.233 -1.66,-1.434 v -61.132 l 147.445,-275.95 h 149.699 v 27.95 l 9.95,31.91 -22.204,41.66 -49.613,25.391 -73.523,137.378 h 158.172 l 95.05,-179.281 -0.007,-61.14 0.007,-94.649 41.911,-78 103.066,0.012 0.004,-132.313 c -9.508,14.012 -27.582,32.77 -60.133,43.821 l -133.316,42.929 v 15.629 c 0,21.813 -17.735,39.543 -39.536,39.543 -21.8,0 -39.535,-17.73 -39.535,-39.543 L 425.73,224.852 c 0,-0.364 -0.05,-0.543 -0.14,-0.762 -0.125,-0.301 -0.414,-0.649 -0.668,-0.82 -0.395,-0.258 -0.602,-0.34 -1.094,-0.34 H 398.02 c -21.805,0 -39.543,-17.731 -39.543,-39.539 0,-21.809 17.738,-39.539 39.543,-39.539 h 25.804 c 0.016,0 0.024,0 0.031,0 10.754,0 21.649,2.207 31.504,6.378 14.481,6.129 26.786,16.258 35.594,29.29 9.082,13.41 13.875,29.07 13.856,45.312 v 93.957 C 562.91,276.18 688.418,184.191 691.387,182.488 c 3.785,-2.179 9.668,-4.566 17.176,-4.566 7.113,0 15.679,2.148 25.308,8.668 27.52,18.648 128.438,158.48 136.563,262.308 10.461,4.192 19.589,8.321 27.148,12.063 -10.859,-15.871 -20.394,-39.281 -14.23,-68.852 l 15.242,-101.918 h -15.43 c -21.797,0 -39.535,-17.75 -39.535,-39.55 0,-21.789 17.738,-39.539 39.535,-39.539 H 1045.8 c 0.41,0 0.59,-0.051 0.77,-0.133 0.3,-0.129 0.65,-0.418 0.81,-0.668 0.26,-0.391 0.34,-0.61 0.35,-1.102 v -25.808 c 0,-21.809 17.74,-39.539 39.54,-39.539 21.8,0 39.54,17.73 39.54,39.539 v 25.808 c 0,10.762 -2.21,21.672 -6.39,31.531 -6.12,14.481 -16.25,26.79 -29.28,35.598"
         style="fill:#07192d;fill-opacity:1;fill-rule:nonzero;stroke:none"
         id="path86" /><path
         d="m 660.684,491.809 -2.715,5.121 2.402,4.5 h -44.984 v 88.629 h -9.617 v -98.25 h 54.914"
         style="fill:#4fc5db;fill-opacity:1;fill-rule:nonzero;stroke:none"
         id="path88" /><path
         d="M 952.488,998.043 841.598,1204.3 h -31.25 l 108.269,-201.7 c 0.262,-0.43 8.399,-14.534 1.446,-26.69 -5.637,-9.867 -19.157,-14.875 -40.161,-14.875 h -215.39 c -38.844,0 -56.574,35.676 -57.309,37.188 l -109.144,203.297 -28.043,-24.38 93.148,-174.55 C 590.906,950.961 596.238,905.879 578.176,875.664 561.086,847.07 524.387,831.93 469.039,830.641 L 562.895,653.59 v -23.219 l 298.675,0.008 v 23.223 l 97.618,184.007 c 34.96,67.598 12.921,123.938 -6.7,160.434"
         style="fill:#4fc5db;fill-opacity:1;fill-rule:nonzero;stroke:none"
         id="path90" /></g></g></svg>
